<svg width="20.000000" height="20.000000" viewBox="0 0 20 20" fill="none" xmlns="http://www.w3.org/2000/svg" xmlns:xlink="http://www.w3.org/1999/xlink">
	<desc>
			Created with Pixso.
	</desc>
	<defs>
		<clipPath id="clip2_563">
			<rect id="Lang" width="20.000000" height="20.000000" fill="white" fill-opacity="0"/>
		</clipPath>
	</defs>
	<rect id="Lang" width="20.000000" height="20.000000" fill="#FFFFFF" fill-opacity="0"/>
	<g clip-path="url(#clip2_563)">
		<path id="Vector (Граница)" d="M8.01 18.86C8.66 19.01 9.32 19.08 10 19.08C10.67 19.08 11.33 19.01 11.98 18.86C12.51 18.74 13.02 18.58 13.53 18.36C14.04 18.15 14.53 17.89 14.99 17.59C15.5 17.25 15.98 16.86 16.42 16.42C16.86 15.98 17.25 15.5 17.59 14.99C17.89 14.53 18.15 14.04 18.36 13.53C18.58 13.02 18.75 12.51 18.86 11.98C19.01 11.33 19.08 10.67 19.08 9.99C19.08 9.32 19.01 8.66 18.86 8.01C18.75 7.48 18.58 6.97 18.36 6.46C18.15 5.95 17.89 5.46 17.59 5C17.25 4.49 16.86 4.01 16.42 3.57C15.98 3.13 15.5 2.74 14.99 2.4C14.53 2.1 14.04 1.84 13.53 1.63C13.02 1.41 12.51 1.25 11.98 1.13C11.33 0.98 10.67 0.91 10 0.91C9.32 0.91 8.66 0.98 8.01 1.13C7.48 1.25 6.97 1.41 6.46 1.63C5.95 1.84 5.46 2.1 5 2.4C4.49 2.74 4.01 3.13 3.57 3.57C3.13 4.01 2.74 4.49 2.4 5C2.1 5.46 1.84 5.95 1.63 6.46C1.41 6.97 1.25 7.48 1.13 8.01C0.98 8.66 0.91 9.32 0.91 9.99C0.91 10.67 0.98 11.33 1.13 11.98C1.25 12.51 1.41 13.02 1.63 13.53C1.84 14.04 2.1 14.53 2.4 14.99C2.74 15.5 3.13 15.98 3.57 16.42C4.01 16.86 4.49 17.25 5 17.59C5.46 17.89 5.95 18.15 6.46 18.36C6.97 18.58 7.48 18.74 8.01 18.86ZM11.68 17.39C11.13 17.52 10.57 17.58 10 17.58C9.42 17.58 8.86 17.52 8.31 17.39C7.88 17.29 7.46 17.16 7.04 16.98C6.62 16.8 6.22 16.59 5.84 16.34C5.41 16.06 5.01 15.73 4.63 15.36C4.26 14.98 3.93 14.58 3.65 14.15C3.4 13.77 3.19 13.37 3.01 12.95C2.83 12.53 2.7 12.11 2.6 11.68C2.47 11.13 2.41 10.57 2.41 9.99C2.41 9.42 2.47 8.86 2.6 8.31C2.7 7.88 2.83 7.46 3.01 7.04C3.19 6.62 3.4 6.22 3.65 5.84C3.93 5.41 4.26 5.01 4.63 4.63C5.01 4.26 5.41 3.93 5.84 3.65C6.22 3.4 6.62 3.19 7.04 3.01C7.46 2.83 7.88 2.7 8.31 2.6C8.86 2.47 9.42 2.41 10 2.41C10.57 2.41 11.13 2.47 11.68 2.6C12.11 2.7 12.53 2.83 12.95 3.01C13.37 3.19 13.77 3.4 14.15 3.65C14.58 3.93 14.98 4.26 15.36 4.63C15.73 5.01 16.06 5.41 16.34 5.84C16.59 6.22 16.8 6.62 16.98 7.04C17.16 7.46 17.29 7.88 17.39 8.31C17.52 8.86 17.58 9.42 17.58 9.99C17.58 10.57 17.52 11.13 17.39 11.68C17.29 12.11 17.16 12.53 16.98 12.95C16.8 13.37 16.59 13.77 16.34 14.15C16.06 14.58 15.73 14.98 15.36 15.36C14.98 15.73 14.58 16.06 14.15 16.34C13.77 16.59 13.37 16.8 12.95 16.98C12.53 17.16 12.11 17.29 11.68 17.39Z" fill="#838383" fill-opacity="1.000000" fill-rule="evenodd"/>
		<path id="Vector (Граница)" d="M11.43 1.25C11.17 0.92 10.71 0.85 10.37 1.11C10.04 1.36 9.98 1.82 10.23 2.16C10.32 2.27 10.44 2.45 10.58 2.68C10.87 3.17 11.14 3.7 11.39 4.27C11.52 4.58 11.65 4.9 11.76 5.22C11.94 5.72 12.09 6.24 12.21 6.76C12.37 7.45 12.47 8.14 12.53 8.83C12.56 9.22 12.58 9.61 12.58 10C12.58 10.38 12.56 10.77 12.53 11.16C12.47 11.85 12.37 12.54 12.21 13.23C12.09 13.75 11.94 14.27 11.76 14.77C11.65 15.09 11.52 15.41 11.39 15.72C11.14 16.29 10.87 16.82 10.58 17.31C10.44 17.54 10.32 17.72 10.23 17.83C9.98 18.17 10.04 18.63 10.37 18.88C10.71 19.14 11.17 19.07 11.43 18.74C11.55 18.58 11.69 18.36 11.86 18.08C12.19 17.54 12.49 16.95 12.77 16.31C12.92 15.96 13.06 15.6 13.19 15.24C13.38 14.69 13.54 14.14 13.67 13.57C13.84 12.83 13.96 12.08 14.02 11.33C14.06 10.88 14.08 10.44 14.08 10C14.08 9.55 14.06 9.11 14.02 8.66C13.96 7.91 13.84 7.16 13.67 6.42C13.54 5.85 13.38 5.3 13.18 4.75C13.06 4.39 12.92 4.03 12.77 3.68C12.49 3.04 12.19 2.45 11.86 1.91C11.69 1.63 11.55 1.41 11.43 1.25Z" fill="#838383" fill-opacity="1.000000" fill-rule="evenodd"/>
		<path id="Vector (Граница)" d="M9.76 2.16C9.67 2.27 9.56 2.45 9.41 2.68C9.12 3.17 8.85 3.7 8.6 4.27C8.47 4.58 8.34 4.9 8.23 5.22C8.05 5.72 7.9 6.24 7.78 6.76C7.62 7.45 7.52 8.14 7.46 8.83C7.43 9.22 7.41 9.61 7.41 10C7.41 10.38 7.43 10.77 7.46 11.16C7.52 11.85 7.62 12.54 7.78 13.23C7.9 13.75 8.05 14.27 8.23 14.77C8.34 15.09 8.47 15.41 8.6 15.72C8.85 16.29 9.12 16.82 9.41 17.31C9.56 17.54 9.67 17.72 9.76 17.83C10.01 18.17 9.95 18.63 9.62 18.88C9.28 19.14 8.82 19.07 8.56 18.74C8.44 18.58 8.3 18.36 8.13 18.08C7.8 17.54 7.5 16.95 7.22 16.31C7.07 15.96 6.93 15.6 6.81 15.24C6.61 14.69 6.45 14.14 6.32 13.57C6.15 12.83 6.03 12.08 5.97 11.33C5.93 10.89 5.91 10.44 5.91 10C5.91 9.55 5.93 9.11 5.97 8.66C6.03 7.91 6.15 7.16 6.32 6.42C6.45 5.85 6.61 5.3 6.81 4.75C6.93 4.39 7.07 4.03 7.22 3.68C7.5 3.04 7.8 2.45 8.13 1.91C8.3 1.63 8.44 1.41 8.56 1.25C8.82 0.92 9.28 0.85 9.62 1.11C9.95 1.36 10.01 1.82 9.76 2.16Z" fill="#838383" fill-opacity="1.000000" fill-rule="evenodd"/>
		<path id="Vector (Граница)" d="M2.19 12.16L17.8 12.16C18.22 12.16 18.55 12.49 18.55 12.91C18.55 13.33 18.22 13.66 17.8 13.66L2.19 13.66C1.77 13.66 1.44 13.33 1.44 12.91C1.44 12.49 1.77 12.16 2.19 12.16Z" fill="#838383" fill-opacity="1.000000" fill-rule="evenodd"/>
		<path id="Vector (Граница)" d="M2.19 6.33L17.8 6.33C18.22 6.33 18.55 6.66 18.55 7.08C18.55 7.5 18.22 7.83 17.8 7.83L2.19 7.83C1.77 7.83 1.44 7.5 1.44 7.08C1.44 6.66 1.77 6.33 2.19 6.33Z" fill="#838383" fill-opacity="1.000000" fill-rule="evenodd"/>
	</g>
</svg>
